{
  "accessors": [
    {
      "bufferView": 0,
      "byteOffset": 0,
      "componentType": 5123,
      "count": 420,
      "type": "SCALAR"
    },
    {
      "bufferView": 1,
      "byteOffset": 0,
      "componentType": 5126,
      "count": 138,
      "max": [
        0.09977358818054155,
        0.06296356201171875,
        0.04410367488861084
      ],
      "min": [
        -0.046373343467712845,
        4.5928955078125004e-05,
        -0.04410367488861084
      ],
      "type": "VEC3"
    },
    {
      "bufferView": 2,
      "byteOffset": 0,
      "componentType": 5126,
      "count": 138,
      "name": "map1",
      "type": "VEC2"
    },
    {
      "bufferView": 3,
      "byteOffset": 0,
      "componentType": 5126,
      "count": 138,
      "type": "VEC3"
    }
  ],
  "asset": {
    "copyright": "2023 (c) Amazon.com, Inc.",
    "generator": "encglb version  (post-processed with splitglb)",
    "version": "2.0"
  },
  "bufferViews": [
    {
      "buffer": 0,
      "byteLength": 840,
      "byteOffset": 0
    },
    {
      "buffer": 0,
      "byteLength": 1656,
      "byteOffset": 840
    },
    {
      "buffer": 0,
      "byteLength": 1104,
      "byteOffset": 2496
    },
    {
      "buffer": 0,
      "byteLength": 1656,
      "byteOffset": 3600
    }
  ],
  "buffers": [
    {
      "byteLength": 5256,
      "uri": "orange.bin"
    }
  ],
  "extensionsUsed": [
    "FB_ngon_encoding"
  ],
  "images": [
    {
      "uri": "normalTexture0.png"
    },
    {
      "uri": "baseColorTexture1.png"
    },
    {
      "uri": "metallicRoughnessTexture2.png"
    }
  ],
  "materials": [
    {
      "doubleSided": true,
      "extensions": {},
      "name": "lambert1",
      "normalTexture": {
        "index": 0
      },
      "pbrMetallicRoughness": {
        "baseColorTexture": {
          "index": 1
        },
        "metallicRoughnessTexture": {
          "index": 2
        }
      }
    }
  ],
  "meshes": [
    {
      "name": "mesh_43",
      "primitives": [
        {
          "attributes": {
            "NORMAL": 3,
            "POSITION": 1,
            "TEXCOORD_0": 2
          },
          "extensions": {
            "FB_ngon_encoding": {}
          },
          "indices": 0,
          "material": 0
        }
      ]
    }
  ],
  "nodes": [
    {
      "mesh": 0,
      "name": "pSphere2"
    }
  ],
  "samplers": [
    {}
  ],
  "scene": 0,
  "scenes": [
    {
      "name": "Scene",
      "nodes": [
        0
      ]
    }
  ],
  "textures": [
    {
      "sampler": 0,
      "source": 0
    },
    {
      "sampler": 0,
      "source": 1
    },
    {
      "sampler": 0,
      "source": 2
    }
  ]
}